<svg xmlns="http://www.w3.org/2000/svg" viewBox="0 0 512 512">
<path
     d="m 405.58704,95.601343 c 2.58715,1.0866 4.44989,3.415032 4.96732,6.157407 l 10.29684,55.83059 55.83058,10.24509 c 2.74237,0.51743 5.0708,2.38017 6.1574,4.96732 1.0866,2.58714 0.77615,5.53649 -0.82788,7.86492 l -32.23583,46.77557 32.23583,46.72383 c 1.60403,2.32843 1.91448,5.27778 0.82788,7.86492 -1.0866,2.58715 -3.41503,4.44989 -6.1574,4.96732 l -55.83058,10.29684 -10.29684,55.83058 c -0.51743,2.74237 -2.38017,5.0708 -4.96732,6.1574 -2.58714,1.0866 -5.53649,0.77615 -7.86492,-0.82788 l -46.72383,-32.23583 -46.72383,32.23583 c -2.32843,1.60403 -5.27778,1.91448 -7.86492,0.82788 -2.58715,-1.0866 -4.44989,-3.41503 -4.96732,-6.1574 L 281.14539,297.29515 225.3148,286.99831 c -2.74237,-0.51743 -5.0708,-2.38017 -6.1574,-4.96732 -1.0866,-2.58714 -0.77614,-5.53649 0.82789,-7.86492 l 32.23582,-46.72383 -32.23582,-46.72383 c -1.60403,-2.32843 -1.91449,-5.27778 -0.82789,-7.86492 1.0866,-2.58715 3.41503,-4.44989 6.1574,-4.96732 l 55.83059,-10.29683 10.29683,-55.83059 c 0.51743,-2.742375 2.38017,-5.070807 4.96732,-6.157407 2.58714,-1.0866 5.53649,-0.77614 7.86492,0.82789 l 46.72383,32.235827 46.72383,-32.235827 c 2.32843,-1.60403 5.27778,-1.91449 7.86492,-0.82789 z M 301.32511,227.44224 a 49.67318,49.67318 0 1 1 99.34636,0 49.67318,49.67318 0 1 1 -99.34636,0 z m 115.90408,0 a 66.230903,66.230903 0 1 0 -132.4618,0 66.230903,66.230903 0 1 0 132.4618,0 z"
     fill="#232323"/><path
     d="m 254.46453,41.563733 c -120.50206,0 -218.074603,97.865247 -218.074603,218.562467 0,120.69722 97.572543,218.56247 218.074603,218.56247 59.12896,0 112.69629,-23.61255 152.01801,-61.86098 4.87863,-4.78106 6.14707,-12.19657 3.02475,-18.24607 -3.12232,-6.0495 -9.85482,-9.46453 -16.58733,-8.29367 -9.5621,1.65874 -19.31937,2.53689 -29.36933,2.53689 -94.54778,0 -171.2398,-76.88715 -171.2398,-171.72766 0,-64.20272 35.12612,-120.11178 87.13227,-149.57868 5.95193,-3.415039 8.97668,-10.245116 7.51309,-16.880048 -1.46359,-6.634932 -7.1228,-11.611131 -13.95288,-12.196566 -6.14706,-0.487863 -12.29413,-0.78058 -18.53878,-0.78058 z"
     fill="#232323"/>
</svg>
